<?xml version="1.0" encoding="UTF-8"?>
<svg xmlns="http://www.w3.org/2000/svg" width="409.66058" height="478.4375">
	<path d="M 1.7877,1.006995 c -1.0759,67.80789 -1.0124,135.625095 0,203.430855 0.9754,65.3291 4.2342,116.3096 33.5012,156.1723 35.255,48.0186 93.98839,82.67104 169.53986,116.7162 75.5514,-34.04516 134.2848,-68.6976 169.5398,-116.7162 29.267,-39.8627 32.5258,-90.8432 33.5012,-156.1723 1.0124,-67.80576 1.0759,-135.622965 0,-203.430855 l -406.08206,0 z" fill="#1a1a1a" stroke="#554400" stroke-width="2"/>
	<g fill="#fee46e" stroke="#806600" stroke-width="1.61051">
		<circle cx="55.31894" cy="75.02365" r="33.26"/>
		<circle cx="130.11646" cy="75.02365" r="33.26"/>
		<circle cx="204.49777" cy="75.02365" r="33.26"/>
		<circle cx="279.28002" cy="75.02365" r="33.26"/>
		<circle cx="354.34156" cy="75.02365" r="33.26"/>
		<circle cx="87.4144" cy="160.5401" r="33.26"/>
		<circle cx="165.58385" cy="160.5401" r="33.26"/>
		<circle cx="244.07664" cy="160.5401" r="33.26"/>
		<circle cx="322.24609" cy="160.5401" r="33.26"/>
		<circle cx="204.83008" cy="246.08469" r="33.26"/>
		<circle cx="117.92641" cy="246.08469" r="33.26"/>
		<circle cx="291.73374" cy="246.08469" r="33.26"/>
		<circle cx="150.30775" cy="326.37463" r="33.26"/>
		<circle cx="259.3525" cy="326.37463" r="33.26"/>
		<circle cx="204.83017" cy="393.12131" r="33.26"/>
	</g>
</svg>